<mxfile host="app.diagrams.net" modified="2024-03-15T03:28:21.733Z" agent="Mozilla/5.0 (Macintosh; Intel Mac OS X 10_15_7) AppleWebKit/605.1.15 (KHTML, like Gecko) Version/17.2.1 Safari/605.1.15" etag="Qi4zLYdGWhL9c4_aXVOz" version="24.0.6" type="github">
  <diagram name="Page-1" id="vtNVHQHyBGBydk0gmIp3">
    <mxGraphModel dx="986" dy="2008" grid="1" gridSize="10" guides="1" tooltips="1" connect="1" arrows="1" fold="1" page="1" pageScale="1" pageWidth="827" pageHeight="1169" math="0" shadow="0">
      <root>
        <mxCell id="0" />
        <mxCell id="1" parent="0" />
        <mxCell id="JPM_mmdzVgyYYmtnvJto-43" style="edgeStyle=orthogonalEdgeStyle;curved=1;rounded=0;orthogonalLoop=1;jettySize=auto;html=1;exitX=0.5;exitY=1;exitDx=0;exitDy=0;entryX=0;entryY=0.5;entryDx=0;entryDy=0;strokeColor=default;align=center;verticalAlign=middle;fontFamily=Helvetica;fontSize=11;fontColor=default;labelBackgroundColor=default;endArrow=classic;" edge="1" parent="1" source="JPM_mmdzVgyYYmtnvJto-31" target="JPM_mmdzVgyYYmtnvJto-34">
          <mxGeometry relative="1" as="geometry" />
        </mxCell>
        <mxCell id="JPM_mmdzVgyYYmtnvJto-44" style="edgeStyle=orthogonalEdgeStyle;curved=1;rounded=0;orthogonalLoop=1;jettySize=auto;html=1;exitX=0.5;exitY=0;exitDx=0;exitDy=0;entryX=0;entryY=0.5;entryDx=0;entryDy=0;strokeColor=default;align=center;verticalAlign=middle;fontFamily=Helvetica;fontSize=11;fontColor=default;labelBackgroundColor=default;endArrow=classic;" edge="1" parent="1" source="JPM_mmdzVgyYYmtnvJto-31" target="JPM_mmdzVgyYYmtnvJto-33">
          <mxGeometry relative="1" as="geometry" />
        </mxCell>
        <mxCell id="JPM_mmdzVgyYYmtnvJto-31" value="&lt;h2&gt;&lt;font style=&quot;font-size: 20px;&quot;&gt;0,0,0,0&lt;/font&gt;&lt;/h2&gt;" style="ellipse;whiteSpace=wrap;html=1;aspect=fixed;fontFamily=Helvetica;fontSize=11;fontColor=default;labelBackgroundColor=default;" vertex="1" parent="1">
          <mxGeometry x="210" y="130" width="80" height="80" as="geometry" />
        </mxCell>
        <mxCell id="JPM_mmdzVgyYYmtnvJto-45" style="edgeStyle=orthogonalEdgeStyle;curved=1;rounded=0;orthogonalLoop=1;jettySize=auto;html=1;exitX=1;exitY=1;exitDx=0;exitDy=0;entryX=0;entryY=0.5;entryDx=0;entryDy=0;strokeColor=default;align=center;verticalAlign=middle;fontFamily=Helvetica;fontSize=11;fontColor=default;labelBackgroundColor=default;endArrow=classic;" edge="1" parent="1" source="JPM_mmdzVgyYYmtnvJto-33" target="JPM_mmdzVgyYYmtnvJto-38">
          <mxGeometry relative="1" as="geometry">
            <Array as="points">
              <mxPoint x="420" y="38" />
              <mxPoint x="420" y="90" />
            </Array>
          </mxGeometry>
        </mxCell>
        <mxCell id="JPM_mmdzVgyYYmtnvJto-46" style="edgeStyle=orthogonalEdgeStyle;curved=1;rounded=0;orthogonalLoop=1;jettySize=auto;html=1;exitX=0.5;exitY=0;exitDx=0;exitDy=0;entryX=0;entryY=0.5;entryDx=0;entryDy=0;strokeColor=default;align=center;verticalAlign=middle;fontFamily=Helvetica;fontSize=11;fontColor=default;labelBackgroundColor=default;endArrow=classic;" edge="1" parent="1" source="JPM_mmdzVgyYYmtnvJto-33" target="JPM_mmdzVgyYYmtnvJto-39">
          <mxGeometry relative="1" as="geometry" />
        </mxCell>
        <mxCell id="JPM_mmdzVgyYYmtnvJto-62" style="edgeStyle=orthogonalEdgeStyle;curved=1;rounded=0;orthogonalLoop=1;jettySize=auto;html=1;exitX=0;exitY=1;exitDx=0;exitDy=0;entryX=1;entryY=0;entryDx=0;entryDy=0;strokeColor=default;align=center;verticalAlign=middle;fontFamily=Helvetica;fontSize=11;fontColor=default;labelBackgroundColor=default;endArrow=classic;" edge="1" parent="1" source="JPM_mmdzVgyYYmtnvJto-33" target="JPM_mmdzVgyYYmtnvJto-31">
          <mxGeometry relative="1" as="geometry" />
        </mxCell>
        <mxCell id="JPM_mmdzVgyYYmtnvJto-33" value="&lt;h2&gt;&lt;font style=&quot;font-size: 20px;&quot;&gt;1,0,0,0&lt;/font&gt;&lt;/h2&gt;" style="ellipse;whiteSpace=wrap;html=1;aspect=fixed;fontFamily=Helvetica;fontSize=11;fontColor=default;labelBackgroundColor=default;" vertex="1" parent="1">
          <mxGeometry x="340" y="-30" width="80" height="80" as="geometry" />
        </mxCell>
        <mxCell id="JPM_mmdzVgyYYmtnvJto-51" style="edgeStyle=orthogonalEdgeStyle;curved=1;rounded=0;orthogonalLoop=1;jettySize=auto;html=1;exitX=1;exitY=0;exitDx=0;exitDy=0;entryX=0;entryY=1;entryDx=0;entryDy=0;strokeColor=default;align=center;verticalAlign=middle;fontFamily=Helvetica;fontSize=11;fontColor=default;labelBackgroundColor=default;endArrow=classic;" edge="1" parent="1" source="JPM_mmdzVgyYYmtnvJto-34" target="JPM_mmdzVgyYYmtnvJto-35">
          <mxGeometry relative="1" as="geometry" />
        </mxCell>
        <mxCell id="JPM_mmdzVgyYYmtnvJto-52" style="edgeStyle=orthogonalEdgeStyle;curved=1;rounded=0;orthogonalLoop=1;jettySize=auto;html=1;exitX=1;exitY=1;exitDx=0;exitDy=0;entryX=0;entryY=0;entryDx=0;entryDy=0;strokeColor=default;align=center;verticalAlign=middle;fontFamily=Helvetica;fontSize=11;fontColor=default;labelBackgroundColor=default;endArrow=classic;" edge="1" parent="1" source="JPM_mmdzVgyYYmtnvJto-34" target="JPM_mmdzVgyYYmtnvJto-36">
          <mxGeometry relative="1" as="geometry" />
        </mxCell>
        <mxCell id="JPM_mmdzVgyYYmtnvJto-61" style="edgeStyle=orthogonalEdgeStyle;curved=1;rounded=0;orthogonalLoop=1;jettySize=auto;html=1;exitX=0;exitY=0;exitDx=0;exitDy=0;entryX=1;entryY=0.5;entryDx=0;entryDy=0;strokeColor=default;align=center;verticalAlign=middle;fontFamily=Helvetica;fontSize=11;fontColor=default;labelBackgroundColor=default;endArrow=classic;" edge="1" parent="1" source="JPM_mmdzVgyYYmtnvJto-34" target="JPM_mmdzVgyYYmtnvJto-31">
          <mxGeometry relative="1" as="geometry" />
        </mxCell>
        <mxCell id="JPM_mmdzVgyYYmtnvJto-34" value="&lt;h2&gt;&lt;font style=&quot;font-size: 20px;&quot;&gt;0,1,0,0&lt;/font&gt;&lt;/h2&gt;" style="ellipse;whiteSpace=wrap;html=1;aspect=fixed;fontFamily=Helvetica;fontSize=11;fontColor=default;labelBackgroundColor=default;" vertex="1" parent="1">
          <mxGeometry x="360" y="290" width="80" height="80" as="geometry" />
        </mxCell>
        <mxCell id="JPM_mmdzVgyYYmtnvJto-54" style="edgeStyle=orthogonalEdgeStyle;curved=1;rounded=0;orthogonalLoop=1;jettySize=auto;html=1;exitX=1;exitY=1;exitDx=0;exitDy=0;entryX=0;entryY=0;entryDx=0;entryDy=0;strokeColor=default;align=center;verticalAlign=middle;fontFamily=Helvetica;fontSize=11;fontColor=default;labelBackgroundColor=default;endArrow=classic;" edge="1" parent="1" source="JPM_mmdzVgyYYmtnvJto-35" target="JPM_mmdzVgyYYmtnvJto-37">
          <mxGeometry relative="1" as="geometry" />
        </mxCell>
        <mxCell id="JPM_mmdzVgyYYmtnvJto-59" style="edgeStyle=orthogonalEdgeStyle;curved=1;rounded=0;orthogonalLoop=1;jettySize=auto;html=1;exitX=0;exitY=0;exitDx=0;exitDy=0;entryX=0.5;entryY=0;entryDx=0;entryDy=0;strokeColor=default;align=center;verticalAlign=middle;fontFamily=Helvetica;fontSize=11;fontColor=default;labelBackgroundColor=default;endArrow=classic;" edge="1" parent="1" source="JPM_mmdzVgyYYmtnvJto-35" target="JPM_mmdzVgyYYmtnvJto-34">
          <mxGeometry relative="1" as="geometry" />
        </mxCell>
        <mxCell id="JPM_mmdzVgyYYmtnvJto-35" value="&lt;h2&gt;&lt;font style=&quot;font-size: 20px;&quot;&gt;0,1,1,0&lt;/font&gt;&lt;/h2&gt;" style="ellipse;whiteSpace=wrap;html=1;aspect=fixed;fontFamily=Helvetica;fontSize=11;fontColor=default;labelBackgroundColor=default;" vertex="1" parent="1">
          <mxGeometry x="480" y="180" width="80" height="80" as="geometry" />
        </mxCell>
        <mxCell id="JPM_mmdzVgyYYmtnvJto-53" style="edgeStyle=orthogonalEdgeStyle;curved=1;rounded=0;orthogonalLoop=1;jettySize=auto;html=1;exitX=1;exitY=0;exitDx=0;exitDy=0;entryX=0;entryY=1;entryDx=0;entryDy=0;strokeColor=default;align=center;verticalAlign=middle;fontFamily=Helvetica;fontSize=11;fontColor=default;labelBackgroundColor=default;endArrow=classic;" edge="1" parent="1" source="JPM_mmdzVgyYYmtnvJto-36" target="JPM_mmdzVgyYYmtnvJto-37">
          <mxGeometry relative="1" as="geometry" />
        </mxCell>
        <mxCell id="JPM_mmdzVgyYYmtnvJto-58" style="edgeStyle=orthogonalEdgeStyle;curved=1;rounded=0;orthogonalLoop=1;jettySize=auto;html=1;exitX=0;exitY=1;exitDx=0;exitDy=0;entryX=0;entryY=1;entryDx=0;entryDy=0;strokeColor=default;align=center;verticalAlign=middle;fontFamily=Helvetica;fontSize=11;fontColor=default;labelBackgroundColor=default;endArrow=classic;" edge="1" parent="1" source="JPM_mmdzVgyYYmtnvJto-36" target="JPM_mmdzVgyYYmtnvJto-34">
          <mxGeometry relative="1" as="geometry" />
        </mxCell>
        <mxCell id="JPM_mmdzVgyYYmtnvJto-36" value="&lt;h2&gt;&lt;font style=&quot;font-size: 20px;&quot;&gt;0,1,0,1&lt;/font&gt;&lt;/h2&gt;" style="ellipse;whiteSpace=wrap;html=1;aspect=fixed;fontFamily=Helvetica;fontSize=11;fontColor=default;labelBackgroundColor=default;" vertex="1" parent="1">
          <mxGeometry x="480" y="410" width="80" height="80" as="geometry" />
        </mxCell>
        <mxCell id="JPM_mmdzVgyYYmtnvJto-55" style="edgeStyle=orthogonalEdgeStyle;curved=1;rounded=0;orthogonalLoop=1;jettySize=auto;html=1;exitX=1;exitY=0;exitDx=0;exitDy=0;entryX=1;entryY=0.5;entryDx=0;entryDy=0;strokeColor=default;align=center;verticalAlign=middle;fontFamily=Helvetica;fontSize=11;fontColor=default;labelBackgroundColor=default;endArrow=classic;" edge="1" parent="1" source="JPM_mmdzVgyYYmtnvJto-37" target="JPM_mmdzVgyYYmtnvJto-35">
          <mxGeometry relative="1" as="geometry">
            <Array as="points">
              <mxPoint x="658" y="260" />
              <mxPoint x="630" y="260" />
              <mxPoint x="630" y="220" />
            </Array>
          </mxGeometry>
        </mxCell>
        <mxCell id="JPM_mmdzVgyYYmtnvJto-60" style="edgeStyle=orthogonalEdgeStyle;curved=1;rounded=0;orthogonalLoop=1;jettySize=auto;html=1;exitX=1;exitY=1;exitDx=0;exitDy=0;entryX=1;entryY=1;entryDx=0;entryDy=0;strokeColor=default;align=center;verticalAlign=middle;fontFamily=Helvetica;fontSize=11;fontColor=default;labelBackgroundColor=default;endArrow=classic;" edge="1" parent="1" source="JPM_mmdzVgyYYmtnvJto-37" target="JPM_mmdzVgyYYmtnvJto-36">
          <mxGeometry relative="1" as="geometry">
            <Array as="points">
              <mxPoint x="630" y="358" />
              <mxPoint x="630" y="478" />
            </Array>
          </mxGeometry>
        </mxCell>
        <mxCell id="JPM_mmdzVgyYYmtnvJto-37" value="&lt;h2&gt;&lt;font style=&quot;font-size: 20px;&quot;&gt;0,1,1,1&lt;/font&gt;&lt;/h2&gt;" style="ellipse;whiteSpace=wrap;html=1;aspect=fixed;fontFamily=Helvetica;fontSize=11;fontColor=default;labelBackgroundColor=default;" vertex="1" parent="1">
          <mxGeometry x="590" y="290" width="80" height="80" as="geometry" />
        </mxCell>
        <mxCell id="JPM_mmdzVgyYYmtnvJto-63" style="edgeStyle=orthogonalEdgeStyle;curved=1;rounded=0;orthogonalLoop=1;jettySize=auto;html=1;exitX=0;exitY=0;exitDx=0;exitDy=0;entryX=1;entryY=0.5;entryDx=0;entryDy=0;strokeColor=default;align=center;verticalAlign=middle;fontFamily=Helvetica;fontSize=11;fontColor=default;labelBackgroundColor=default;endArrow=classic;" edge="1" parent="1" source="JPM_mmdzVgyYYmtnvJto-38" target="JPM_mmdzVgyYYmtnvJto-33">
          <mxGeometry relative="1" as="geometry">
            <Array as="points">
              <mxPoint x="500" y="62" />
              <mxPoint x="500" y="10" />
            </Array>
          </mxGeometry>
        </mxCell>
        <mxCell id="JPM_mmdzVgyYYmtnvJto-38" value="&lt;h2&gt;&lt;font style=&quot;font-size: 20px;&quot;&gt;1,0,0,1&lt;/font&gt;&lt;/h2&gt;" style="ellipse;whiteSpace=wrap;html=1;aspect=fixed;fontFamily=Helvetica;fontSize=11;fontColor=default;labelBackgroundColor=default;" vertex="1" parent="1">
          <mxGeometry x="480" y="50" width="80" height="80" as="geometry" />
        </mxCell>
        <mxCell id="JPM_mmdzVgyYYmtnvJto-47" style="edgeStyle=orthogonalEdgeStyle;curved=1;rounded=0;orthogonalLoop=1;jettySize=auto;html=1;exitX=1;exitY=0;exitDx=0;exitDy=0;entryX=0;entryY=1;entryDx=0;entryDy=0;strokeColor=default;align=center;verticalAlign=middle;fontFamily=Helvetica;fontSize=11;fontColor=default;labelBackgroundColor=default;endArrow=classic;" edge="1" parent="1" source="JPM_mmdzVgyYYmtnvJto-39" target="JPM_mmdzVgyYYmtnvJto-40">
          <mxGeometry relative="1" as="geometry" />
        </mxCell>
        <mxCell id="JPM_mmdzVgyYYmtnvJto-48" style="edgeStyle=orthogonalEdgeStyle;curved=1;rounded=0;orthogonalLoop=1;jettySize=auto;html=1;exitX=1;exitY=1;exitDx=0;exitDy=0;entryX=0;entryY=1;entryDx=0;entryDy=0;strokeColor=default;align=center;verticalAlign=middle;fontFamily=Helvetica;fontSize=11;fontColor=default;labelBackgroundColor=default;endArrow=classic;" edge="1" parent="1" source="JPM_mmdzVgyYYmtnvJto-39" target="JPM_mmdzVgyYYmtnvJto-41">
          <mxGeometry relative="1" as="geometry">
            <Array as="points">
              <mxPoint x="538" y="-12" />
            </Array>
          </mxGeometry>
        </mxCell>
        <mxCell id="JPM_mmdzVgyYYmtnvJto-64" style="edgeStyle=orthogonalEdgeStyle;curved=1;rounded=0;orthogonalLoop=1;jettySize=auto;html=1;exitX=0;exitY=1;exitDx=0;exitDy=0;entryX=1;entryY=0;entryDx=0;entryDy=0;strokeColor=default;align=center;verticalAlign=middle;fontFamily=Helvetica;fontSize=11;fontColor=default;labelBackgroundColor=default;endArrow=classic;" edge="1" parent="1" source="JPM_mmdzVgyYYmtnvJto-39" target="JPM_mmdzVgyYYmtnvJto-33">
          <mxGeometry relative="1" as="geometry" />
        </mxCell>
        <mxCell id="JPM_mmdzVgyYYmtnvJto-39" value="&lt;h2&gt;&lt;font style=&quot;font-size: 20px;&quot;&gt;2,0,0,0&lt;/font&gt;&lt;/h2&gt;" style="ellipse;whiteSpace=wrap;html=1;aspect=fixed;fontFamily=Helvetica;fontSize=11;fontColor=default;labelBackgroundColor=default;" vertex="1" parent="1">
          <mxGeometry x="470" y="-140" width="80" height="80" as="geometry" />
        </mxCell>
        <mxCell id="JPM_mmdzVgyYYmtnvJto-50" style="edgeStyle=orthogonalEdgeStyle;curved=1;rounded=0;orthogonalLoop=1;jettySize=auto;html=1;exitX=1;exitY=1;exitDx=0;exitDy=0;entryX=0;entryY=0;entryDx=0;entryDy=0;strokeColor=default;align=center;verticalAlign=middle;fontFamily=Helvetica;fontSize=11;fontColor=default;labelBackgroundColor=default;endArrow=classic;" edge="1" parent="1" source="JPM_mmdzVgyYYmtnvJto-40" target="JPM_mmdzVgyYYmtnvJto-42">
          <mxGeometry relative="1" as="geometry" />
        </mxCell>
        <mxCell id="JPM_mmdzVgyYYmtnvJto-68" style="edgeStyle=orthogonalEdgeStyle;curved=1;rounded=0;orthogonalLoop=1;jettySize=auto;html=1;exitX=0;exitY=0;exitDx=0;exitDy=0;entryX=0.5;entryY=0;entryDx=0;entryDy=0;strokeColor=default;align=center;verticalAlign=middle;fontFamily=Helvetica;fontSize=11;fontColor=default;labelBackgroundColor=default;endArrow=classic;" edge="1" parent="1" source="JPM_mmdzVgyYYmtnvJto-40" target="JPM_mmdzVgyYYmtnvJto-39">
          <mxGeometry relative="1" as="geometry" />
        </mxCell>
        <mxCell id="JPM_mmdzVgyYYmtnvJto-40" value="&lt;h2&gt;&lt;font style=&quot;font-size: 20px;&quot;&gt;2,0,1,0&lt;/font&gt;&lt;/h2&gt;" style="ellipse;whiteSpace=wrap;html=1;aspect=fixed;fontFamily=Helvetica;fontSize=11;fontColor=default;labelBackgroundColor=default;" vertex="1" parent="1">
          <mxGeometry x="610" y="-230" width="80" height="80" as="geometry" />
        </mxCell>
        <mxCell id="JPM_mmdzVgyYYmtnvJto-49" style="edgeStyle=orthogonalEdgeStyle;curved=1;rounded=0;orthogonalLoop=1;jettySize=auto;html=1;exitX=1;exitY=1;exitDx=0;exitDy=0;entryX=0;entryY=1;entryDx=0;entryDy=0;strokeColor=default;align=center;verticalAlign=middle;fontFamily=Helvetica;fontSize=11;fontColor=default;labelBackgroundColor=default;endArrow=classic;" edge="1" parent="1" source="JPM_mmdzVgyYYmtnvJto-41" target="JPM_mmdzVgyYYmtnvJto-42">
          <mxGeometry relative="1" as="geometry">
            <Array as="points">
              <mxPoint x="678" y="-20" />
              <mxPoint x="720" y="-20" />
              <mxPoint x="720" y="-72" />
            </Array>
          </mxGeometry>
        </mxCell>
        <mxCell id="JPM_mmdzVgyYYmtnvJto-67" style="edgeStyle=orthogonalEdgeStyle;curved=1;rounded=0;orthogonalLoop=1;jettySize=auto;html=1;exitX=0;exitY=0;exitDx=0;exitDy=0;entryX=1;entryY=0.5;entryDx=0;entryDy=0;strokeColor=default;align=center;verticalAlign=middle;fontFamily=Helvetica;fontSize=11;fontColor=default;labelBackgroundColor=default;endArrow=classic;" edge="1" parent="1" source="JPM_mmdzVgyYYmtnvJto-41" target="JPM_mmdzVgyYYmtnvJto-39">
          <mxGeometry relative="1" as="geometry">
            <Array as="points">
              <mxPoint x="610" y="-68" />
              <mxPoint x="610" y="-100" />
            </Array>
          </mxGeometry>
        </mxCell>
        <mxCell id="JPM_mmdzVgyYYmtnvJto-41" value="&lt;h2&gt;&lt;font style=&quot;font-size: 20px;&quot;&gt;2,0,0,1&lt;/font&gt;&lt;/h2&gt;" style="ellipse;whiteSpace=wrap;html=1;aspect=fixed;fontFamily=Helvetica;fontSize=11;fontColor=default;labelBackgroundColor=default;" vertex="1" parent="1">
          <mxGeometry x="610" y="-80" width="80" height="80" as="geometry" />
        </mxCell>
        <mxCell id="JPM_mmdzVgyYYmtnvJto-65" style="edgeStyle=orthogonalEdgeStyle;curved=1;rounded=0;orthogonalLoop=1;jettySize=auto;html=1;exitX=0.5;exitY=0;exitDx=0;exitDy=0;entryX=1;entryY=0.5;entryDx=0;entryDy=0;strokeColor=default;align=center;verticalAlign=middle;fontFamily=Helvetica;fontSize=11;fontColor=default;labelBackgroundColor=default;endArrow=classic;" edge="1" parent="1" source="JPM_mmdzVgyYYmtnvJto-42" target="JPM_mmdzVgyYYmtnvJto-40">
          <mxGeometry relative="1" as="geometry" />
        </mxCell>
        <mxCell id="JPM_mmdzVgyYYmtnvJto-42" value="&lt;h2&gt;&lt;font style=&quot;font-size: 20px;&quot;&gt;2,0,1,1&lt;/font&gt;&lt;/h2&gt;" style="ellipse;whiteSpace=wrap;html=1;aspect=fixed;fontFamily=Helvetica;fontSize=11;fontColor=default;labelBackgroundColor=default;" vertex="1" parent="1">
          <mxGeometry x="750" y="-140" width="80" height="80" as="geometry" />
        </mxCell>
        <mxCell id="JPM_mmdzVgyYYmtnvJto-66" style="edgeStyle=orthogonalEdgeStyle;curved=1;rounded=0;orthogonalLoop=1;jettySize=auto;html=1;exitX=0.5;exitY=1;exitDx=0;exitDy=0;entryX=0.645;entryY=1.007;entryDx=0;entryDy=0;entryPerimeter=0;strokeColor=default;align=center;verticalAlign=middle;fontFamily=Helvetica;fontSize=11;fontColor=default;labelBackgroundColor=default;endArrow=classic;" edge="1" parent="1" source="JPM_mmdzVgyYYmtnvJto-42" target="JPM_mmdzVgyYYmtnvJto-41">
          <mxGeometry relative="1" as="geometry" />
        </mxCell>
        <mxCell id="JPM_mmdzVgyYYmtnvJto-75" value="&lt;span style=&quot;caret-color: rgba(0, 0, 0, 0); color: rgba(0, 0, 0, 0); font-family: monospace; font-size: 0px; text-align: start; background-color: rgb(251, 251, 251);&quot;&gt;%3CmxGraphModel%3E%3Croot%3E%3CmxCell%20id%3D%220%22%2F%3E%3CmxCell%20id%3D%221%22%20parent%3D%220%22%2F%3E%3CmxCell%20id%3D%222%22%20value%3D%22%26lt%3Bol%20style%3D%26quot%3Btext-align%3A%20start%3B%20white-space%3A%20normal%3B%20margin%3A%200px%3B%20padding-left%3A%202em%3B%20list-style-type%3A%20none%3B%20font-size%3A%2012px%3B%26quot%3B%20start%3D%26quot%3B0%26quot%3B%26gt%3B%26lt%3Bli%26gt%3B%26lt%3Bp%26gt%3B%26lt%3Bfont%20face%3D%26quot%3BHelvetica%26quot%3B%26gt%3B%26lt%3Bspan%20style%3D%26quot%3Bfont-size%3A%2011pt%3B%26quot%3B%26gt%3B%CE%BB%26lt%3B%2Fspan%26gt%3B%26lt%3Bspan%20style%3D%26quot%3Bfont-size%3A%208pt%3B%20vertical-align%3A%20-2pt%3B%26quot%3B%26gt%3B1%26lt%3B%2Fspan%26gt%3B%26lt%3B%2Ffont%26gt%3B%26lt%3B%2Fp%26gt%3B%26lt%3B%2Fli%26gt%3B%26lt%3B%2Fol%26gt%3B%22%20style%3D%22text%3Bhtml%3D1%3Balign%3Dcenter%3BverticalAlign%3Dmiddle%3Bresizable%3D0%3Bpoints%3D%5B%5D%3Bautosize%3D1%3BstrokeColor%3Dnone%3BfillColor%3Dnone%3BfontFamily%3DHelvetica%3BfontSize%3D11%3BfontColor%3Ddefault%3BlabelBackgroundColor%3Ddefault%3B%22%20vertex%3D%221%22%20parent%3D%221%22%3E%3CmxGeometry%20x%3D%22210%22%20y%3D%2213%22%20width%3D%2260%22%20height%3D%2260%22%20as%3D%22geometry%22%2F%3E%3C%2FmxCell%3E%3C%2Froot%3E%3C%2FmxGraphModel%3E&lt;/span&gt;" style="text;html=1;align=center;verticalAlign=middle;resizable=0;points=[];autosize=1;strokeColor=none;fillColor=none;fontFamily=Helvetica;fontSize=11;fontColor=default;labelBackgroundColor=default;" vertex="1" parent="1">
          <mxGeometry x="90" y="-202" width="20" height="30" as="geometry" />
        </mxCell>
        <mxCell id="JPM_mmdzVgyYYmtnvJto-77" value="&lt;font style=&quot;font-size: 14px;&quot;&gt;λ1&lt;/font&gt;" style="text;html=1;align=center;verticalAlign=middle;resizable=0;points=[];autosize=1;strokeColor=none;fillColor=none;fontFamily=Helvetica;fontSize=11;fontColor=default;labelBackgroundColor=default;" vertex="1" parent="1">
          <mxGeometry x="480" y="290" width="40" height="30" as="geometry" />
        </mxCell>
        <mxCell id="JPM_mmdzVgyYYmtnvJto-79" value="&lt;font style=&quot;font-size: 14px;&quot;&gt;λ1&lt;/font&gt;" style="text;html=1;align=center;verticalAlign=middle;resizable=0;points=[];autosize=1;strokeColor=none;fillColor=none;fontFamily=Helvetica;fontSize=11;fontColor=default;labelBackgroundColor=default;" vertex="1" parent="1">
          <mxGeometry x="365" y="-125" width="40" height="30" as="geometry" />
        </mxCell>
        <mxCell id="JPM_mmdzVgyYYmtnvJto-81" value="&lt;font style=&quot;font-size: 14px;&quot;&gt;λ1&lt;/font&gt;" style="text;html=1;align=center;verticalAlign=middle;resizable=0;points=[];autosize=1;strokeColor=none;fillColor=none;fontFamily=Helvetica;fontSize=11;fontColor=default;labelBackgroundColor=default;" vertex="1" parent="1">
          <mxGeometry x="600" y="-140" width="40" height="30" as="geometry" />
        </mxCell>
        <mxCell id="JPM_mmdzVgyYYmtnvJto-83" value="&lt;font style=&quot;font-size: 14px;&quot;&gt;λ&lt;/font&gt;&lt;span style=&quot;font-size: 14px;&quot;&gt;2&lt;/span&gt;" style="text;html=1;align=center;verticalAlign=middle;resizable=0;points=[];autosize=1;strokeColor=none;fillColor=none;fontFamily=Helvetica;fontSize=11;fontColor=default;labelBackgroundColor=default;" vertex="1" parent="1">
          <mxGeometry x="220" y="270" width="40" height="30" as="geometry" />
        </mxCell>
        <mxCell id="JPM_mmdzVgyYYmtnvJto-84" value="&lt;font style=&quot;font-size: 14px;&quot;&gt;λ1&lt;/font&gt;" style="text;html=1;align=center;verticalAlign=middle;resizable=0;points=[];autosize=1;strokeColor=none;fillColor=none;fontFamily=Helvetica;fontSize=11;fontColor=default;labelBackgroundColor=default;" vertex="1" parent="1">
          <mxGeometry x="220" y="30" width="40" height="30" as="geometry" />
        </mxCell>
        <mxCell id="JPM_mmdzVgyYYmtnvJto-85" value="&lt;font style=&quot;font-size: 14px;&quot;&gt;λ&lt;/font&gt;&lt;span style=&quot;font-size: 14px;&quot;&gt;2&lt;/span&gt;" style="text;html=1;align=center;verticalAlign=middle;resizable=0;points=[];autosize=1;strokeColor=none;fillColor=none;fontFamily=Helvetica;fontSize=11;fontColor=default;labelBackgroundColor=default;" vertex="1" parent="1">
          <mxGeometry x="480" y="350" width="40" height="30" as="geometry" />
        </mxCell>
        <mxCell id="JPM_mmdzVgyYYmtnvJto-86" value="&lt;font style=&quot;font-size: 14px;&quot;&gt;λ1&lt;/font&gt;" style="text;html=1;align=center;verticalAlign=middle;resizable=0;points=[];autosize=1;strokeColor=none;fillColor=none;fontFamily=Helvetica;fontSize=11;fontColor=default;labelBackgroundColor=default;" vertex="1" parent="1">
          <mxGeometry x="560" y="380" width="40" height="30" as="geometry" />
        </mxCell>
        <mxCell id="JPM_mmdzVgyYYmtnvJto-87" value="&lt;font style=&quot;font-size: 14px;&quot;&gt;λ&lt;/font&gt;&lt;span style=&quot;font-size: 14px;&quot;&gt;2&lt;/span&gt;" style="text;html=1;align=center;verticalAlign=middle;resizable=0;points=[];autosize=1;strokeColor=none;fillColor=none;fontFamily=Helvetica;fontSize=11;fontColor=default;labelBackgroundColor=default;" vertex="1" parent="1">
          <mxGeometry x="550" y="260" width="40" height="30" as="geometry" />
        </mxCell>
        <mxCell id="JPM_mmdzVgyYYmtnvJto-89" value="&lt;font style=&quot;font-size: 14px;&quot;&gt;λ&lt;/font&gt;&lt;span style=&quot;font-size: 14px;&quot;&gt;2&lt;/span&gt;" style="text;html=1;align=center;verticalAlign=middle;resizable=0;points=[];autosize=1;strokeColor=none;fillColor=none;fontFamily=Helvetica;fontSize=11;fontColor=default;labelBackgroundColor=default;" vertex="1" parent="1">
          <mxGeometry x="414" y="80" width="40" height="30" as="geometry" />
        </mxCell>
        <mxCell id="JPM_mmdzVgyYYmtnvJto-90" value="&lt;font style=&quot;font-size: 14px;&quot;&gt;λ&lt;/font&gt;&lt;span style=&quot;font-size: 14px;&quot;&gt;2&lt;/span&gt;" style="text;html=1;align=center;verticalAlign=middle;resizable=0;points=[];autosize=1;strokeColor=none;fillColor=none;fontFamily=Helvetica;fontSize=11;fontColor=default;labelBackgroundColor=default;" vertex="1" parent="1">
          <mxGeometry x="700" y="-160" width="40" height="30" as="geometry" />
        </mxCell>
        <mxCell id="JPM_mmdzVgyYYmtnvJto-91" value="&lt;font style=&quot;font-size: 14px;&quot;&gt;λ&lt;/font&gt;&lt;span style=&quot;font-size: 14px;&quot;&gt;2&lt;/span&gt;" style="text;html=1;align=center;verticalAlign=middle;resizable=0;points=[];autosize=1;strokeColor=none;fillColor=none;fontFamily=Helvetica;fontSize=11;fontColor=default;labelBackgroundColor=default;" vertex="1" parent="1">
          <mxGeometry x="540" y="-20" width="40" height="30" as="geometry" />
        </mxCell>
        <mxCell id="JPM_mmdzVgyYYmtnvJto-92" value="&lt;font style=&quot;font-size: 14px;&quot;&gt;λ1&lt;/font&gt;" style="text;html=1;align=center;verticalAlign=middle;resizable=0;points=[];autosize=1;strokeColor=none;fillColor=none;fontFamily=Helvetica;fontSize=11;fontColor=default;labelBackgroundColor=default;" vertex="1" parent="1">
          <mxGeometry x="690" y="-70" width="40" height="30" as="geometry" />
        </mxCell>
        <mxCell id="JPM_mmdzVgyYYmtnvJto-93" value="&lt;font style=&quot;font-size: 14px;&quot;&gt;μ1&lt;/font&gt;" style="text;html=1;align=center;verticalAlign=middle;resizable=0;points=[];autosize=1;strokeColor=none;fillColor=none;fontFamily=Helvetica;fontSize=11;fontColor=default;labelBackgroundColor=default;" vertex="1" parent="1">
          <mxGeometry x="290" y="75" width="40" height="30" as="geometry" />
        </mxCell>
        <mxCell id="JPM_mmdzVgyYYmtnvJto-94" value="&lt;font style=&quot;font-size: 14px;&quot;&gt;μ1&lt;/font&gt;" style="text;html=1;align=center;verticalAlign=middle;resizable=0;points=[];autosize=1;strokeColor=none;fillColor=none;fontFamily=Helvetica;fontSize=11;fontColor=default;labelBackgroundColor=default;" vertex="1" parent="1">
          <mxGeometry x="430" y="-70" width="40" height="30" as="geometry" />
        </mxCell>
        <mxCell id="JPM_mmdzVgyYYmtnvJto-95" value="&lt;font style=&quot;font-size: 14px;&quot;&gt;μ1&lt;/font&gt;" style="text;html=1;align=center;verticalAlign=middle;resizable=0;points=[];autosize=1;strokeColor=none;fillColor=none;fontFamily=Helvetica;fontSize=11;fontColor=default;labelBackgroundColor=default;" vertex="1" parent="1">
          <mxGeometry x="540" y="-250" width="40" height="30" as="geometry" />
        </mxCell>
        <mxCell id="JPM_mmdzVgyYYmtnvJto-96" value="&lt;font style=&quot;font-size: 14px;&quot;&gt;μ1&lt;/font&gt;" style="text;html=1;align=center;verticalAlign=middle;resizable=0;points=[];autosize=1;strokeColor=none;fillColor=none;fontFamily=Helvetica;fontSize=11;fontColor=default;labelBackgroundColor=default;" vertex="1" parent="1">
          <mxGeometry x="740" y="20" width="40" height="30" as="geometry" />
        </mxCell>
        <mxCell id="JPM_mmdzVgyYYmtnvJto-97" value="&lt;font style=&quot;font-size: 14px;&quot;&gt;μ1&lt;/font&gt;" style="text;html=1;align=center;verticalAlign=middle;resizable=0;points=[];autosize=1;strokeColor=none;fillColor=none;fontFamily=Helvetica;fontSize=11;fontColor=default;labelBackgroundColor=default;" vertex="1" parent="1">
          <mxGeometry x="414" y="205" width="40" height="30" as="geometry" />
        </mxCell>
        <mxCell id="JPM_mmdzVgyYYmtnvJto-98" value="&lt;font style=&quot;font-size: 14px;&quot;&gt;μ1&lt;/font&gt;" style="text;html=1;align=center;verticalAlign=middle;resizable=0;points=[];autosize=1;strokeColor=none;fillColor=none;fontFamily=Helvetica;fontSize=11;fontColor=default;labelBackgroundColor=default;" vertex="1" parent="1">
          <mxGeometry x="590" y="435" width="40" height="30" as="geometry" />
        </mxCell>
        <mxCell id="JPM_mmdzVgyYYmtnvJto-99" value="&lt;font style=&quot;font-size: 14px;&quot;&gt;μ2&lt;/font&gt;" style="text;html=1;align=center;verticalAlign=middle;resizable=0;points=[];autosize=1;strokeColor=none;fillColor=none;fontFamily=Helvetica;fontSize=11;fontColor=default;labelBackgroundColor=default;" vertex="1" parent="1">
          <mxGeometry x="290" y="210" width="40" height="30" as="geometry" />
        </mxCell>
        <mxCell id="JPM_mmdzVgyYYmtnvJto-100" value="&lt;font style=&quot;font-size: 14px;&quot;&gt;μ2&lt;/font&gt;" style="text;html=1;align=center;verticalAlign=middle;resizable=0;points=[];autosize=1;strokeColor=none;fillColor=none;fontFamily=Helvetica;fontSize=11;fontColor=default;labelBackgroundColor=default;" vertex="1" parent="1">
          <mxGeometry x="380" y="450" width="40" height="30" as="geometry" />
        </mxCell>
        <mxCell id="JPM_mmdzVgyYYmtnvJto-101" value="&lt;font style=&quot;font-size: 14px;&quot;&gt;μ2&lt;/font&gt;" style="text;html=1;align=center;verticalAlign=middle;resizable=0;points=[];autosize=1;strokeColor=none;fillColor=none;fontFamily=Helvetica;fontSize=11;fontColor=default;labelBackgroundColor=default;" vertex="1" parent="1">
          <mxGeometry x="630" y="230" width="40" height="30" as="geometry" />
        </mxCell>
        <mxCell id="JPM_mmdzVgyYYmtnvJto-102" value="&lt;font style=&quot;font-size: 14px;&quot;&gt;μ2&lt;/font&gt;" style="text;html=1;align=center;verticalAlign=middle;resizable=0;points=[];autosize=1;strokeColor=none;fillColor=none;fontFamily=Helvetica;fontSize=11;fontColor=default;labelBackgroundColor=default;" vertex="1" parent="1">
          <mxGeometry x="454" y="10" width="40" height="30" as="geometry" />
        </mxCell>
        <mxCell id="JPM_mmdzVgyYYmtnvJto-103" value="&lt;font style=&quot;font-size: 14px;&quot;&gt;μ2&lt;/font&gt;" style="text;html=1;align=center;verticalAlign=middle;resizable=0;points=[];autosize=1;strokeColor=none;fillColor=none;fontFamily=Helvetica;fontSize=11;fontColor=default;labelBackgroundColor=default;" vertex="1" parent="1">
          <mxGeometry x="570" y="-90" width="40" height="30" as="geometry" />
        </mxCell>
        <mxCell id="JPM_mmdzVgyYYmtnvJto-104" value="&lt;font style=&quot;font-size: 14px;&quot;&gt;μ2&lt;/font&gt;" style="text;html=1;align=center;verticalAlign=middle;resizable=0;points=[];autosize=1;strokeColor=none;fillColor=none;fontFamily=Helvetica;fontSize=11;fontColor=default;labelBackgroundColor=default;" vertex="1" parent="1">
          <mxGeometry x="750" y="-210" width="40" height="30" as="geometry" />
        </mxCell>
      </root>
    </mxGraphModel>
  </diagram>
</mxfile>
